<?xml version="1.0" encoding="UTF-8" standalone="no"?>
<svg
   xmlns:dc="http://purl.org/dc/elements/1.1/"
   xmlns:cc="http://creativecommons.org/ns#"
   xmlns:rdf="http://www.w3.org/1999/02/22-rdf-syntax-ns#"
   xmlns:svg="http://www.w3.org/2000/svg"
   xmlns="http://www.w3.org/2000/svg"
   xmlns:sodipodi="http://sodipodi.sourceforge.net/DTD/sodipodi-0.dtd"
   xmlns:inkscape="http://www.inkscape.org/namespaces/inkscape"
   width="796.97876"
   height="523.94495"
   viewBox="0 0 3.9848938 2.6197247"
   id="svg2"
   version="1.1"
   inkscape:version="0.47 r22583"
   sodipodi:docname="ZZ.svg">
  <metadata
     id="metadata14">
    <rdf:RDF>
      <cc:Work
         rdf:about="">
        <dc:format>image/svg+xml</dc:format>
        <dc:type
           rdf:resource="http://purl.org/dc/dcmitype/StillImage" />
      </cc:Work>
    </rdf:RDF>
  </metadata>
  <defs
     id="defs12">
    <inkscape:perspective
       sodipodi:type="inkscape:persp3d"
       inkscape:vp_x="0 : 300 : 1"
       inkscape:vp_y="0 : 1000 : 0"
       inkscape:vp_z="1000 : 300 : 1"
       inkscape:persp3d-origin="500 : 200 : 1"
       id="perspective16" />
    <inkscape:perspective
       id="perspective3653"
       inkscape:persp3d-origin="0.5 : 0.33333333 : 1"
       inkscape:vp_z="1 : 0.5 : 1"
       inkscape:vp_y="0 : 1000 : 0"
       inkscape:vp_x="0 : 0.5 : 1"
       sodipodi:type="inkscape:persp3d" />
    <inkscape:perspective
       id="perspective2824"
       inkscape:persp3d-origin="0.5 : 0.33333333 : 1"
       inkscape:vp_z="1 : 0.5 : 1"
       inkscape:vp_y="0 : 1000 : 0"
       inkscape:vp_x="0 : 0.5 : 1"
       sodipodi:type="inkscape:persp3d" />
    <inkscape:perspective
       id="perspective2837"
       inkscape:persp3d-origin="0.5 : 0.33333333 : 1"
       inkscape:vp_z="1 : 0.5 : 1"
       inkscape:vp_y="0 : 1000 : 0"
       inkscape:vp_x="0 : 0.5 : 1"
       sodipodi:type="inkscape:persp3d" />
    <inkscape:perspective
       id="perspective3597"
       inkscape:persp3d-origin="0.5 : 0.33333333 : 1"
       inkscape:vp_z="1 : 0.5 : 1"
       inkscape:vp_y="0 : 1000 : 0"
       inkscape:vp_x="0 : 0.5 : 1"
       sodipodi:type="inkscape:persp3d" />
    <inkscape:perspective
       id="perspective3610"
       inkscape:persp3d-origin="0.5 : 0.33333333 : 1"
       inkscape:vp_z="1 : 0.5 : 1"
       inkscape:vp_y="0 : 1000 : 0"
       inkscape:vp_x="0 : 0.5 : 1"
       sodipodi:type="inkscape:persp3d" />
  </defs>
  <sodipodi:namedview
     pagecolor="#ffffff"
     bordercolor="#666666"
     borderopacity="1"
     objecttolerance="10"
     gridtolerance="10"
     guidetolerance="10"
     inkscape:pageopacity="0"
     inkscape:pageshadow="2"
     inkscape:window-width="1280"
     inkscape:window-height="1004"
     id="namedview10"
     showgrid="false"
     inkscape:zoom="0.5"
     inkscape:cx="729.47786"
     inkscape:cy="156.15006"
     inkscape:window-x="-8"
     inkscape:window-y="-8"
     inkscape:window-maximized="1"
     inkscape:current-layer="svg2" />
  <path
     style="fill:#ffffff;stroke:#00966e;stroke-width:0.02;stroke-miterlimit:4;stroke-opacity:1;stroke-dasharray:none"
     d="m 0.24291157,0.01002858 c -3.2e-4,3.3e-5 -4.8e-4,1.035e-4 -6.25e-4,3.125e-4 -0.00116,0.00167 -0.0120005,0.016354 -0.0240625,0.032656 -0.017005,0.022984 -0.021875,0.037606 -0.021875,0.064688 0,0.029271 -0.002421,0.035251 -0.0148435,0.037031 -0.008152,0.00117 -0.0181215,0.00938 -0.0220315,0.018281 -0.005311,0.012097 -0.015792,0.017348 -0.041875,0.020938 -0.019199,0.00264 -0.039871,0.010397 -0.0457815,0.017187 -0.006424,0.00739 -0.0123435,0.035835 -0.0148435,0.070781 -0.002291,0.032126 -0.007681,0.0619 -0.0120315,0.06625 -0.010845,0.01085 -0.009972,0.027077 0.003125,0.052188 0.006084,0.011674 0.011094,0.027029 0.011094,0.034219 0,0.023371 0.021183,0.064331 0.039375,0.07625 0.015241,0.00998 0.018331,0.019381 0.022031,0.065937 0.005527,0.06946 0.016441,0.099444 0.041094,0.1123437 0.044464,0.023266 0.0578145,0.031906 0.078281,0.05125 0.0118025,0.011152 0.0254825,0.020313 0.030313,0.020313 0.0126265,0 0.055625,0.062621 0.055625,0.080937 0,0.0088 0.00492,0.015469 0.01125,0.015469 0.006113,0 0.0110935,0.00501 0.0110935,0.01125 0,0.00624 0.005839,0.013427 0.0129687,0.015937 0.001783,6.28e-4 0.004074,0.0018 0.006875,0.00328 l 3.22421883,0 c 0.00346,-0.011635 0.010032,-0.021477 0.021719,-0.034219 0.013186,-0.014375 0.026054,-0.035271 0.028594,-0.046406 0.019488,-0.08529 0.043303,-0.1203125 0.081719,-0.1203125 0.013313,0 0.025889,-0.00272 0.027969,-0.00609 0.0067,-0.010839 0.086174,-0.010241 0.1032812,7.813e-4 0.020266,0.013056 0.049375,0.020602 0.049375,0.012812 0,-0.00327 0.00853,-0.013837 0.018906,-0.023437 0.038659,-0.035746 0.060959,-0.1016775 0.046719,-0.1378125 -0.00925,-0.023475 -0.01499,-0.078469 -0.01375,-0.1303125 l 7.813e-4,-0.035938 -0.042969,0.00234 c -0.023663,0.00132 -0.046491,2.1e-4 -0.050781,-0.0025 -0.00429,-0.00271 -0.044287,-0.00885 -0.088906,-0.013594 -0.044619,-0.00474 -0.086234,-0.012703 -0.092344,-0.017812 -0.017046,-0.014251 -0.060064,-0.03375 -0.074531,-0.03375 -0.00951,0 -0.015311,-0.010318 -0.022031,-0.038906 -0.01676,-0.071257 -0.028461,-0.093087 -0.052812,-0.098438 -0.016548,-0.00363 -0.026311,-0.00121 -0.038281,0.00969 -0.017647,0.016061 -0.062676,0.026841 -0.081719,0.019531 -0.00666,-0.00256 -0.012187,-0.01153 -0.012187,-0.02 0,-0.01885 -0.027615,-0.049688 -0.044531,-0.049688 -0.00681,0 -0.018166,0.00633 -0.025156,0.014063 -0.01067,0.011791 -0.022138,0.013776 -0.071406,0.012656 -0.055958,-0.00128 -0.059823,-0.00246 -0.084688,-0.026563 -0.01517,-0.014703 -0.026094,-0.03259 -0.026094,-0.042656 0,-0.021204 -0.019146,-0.029684 -0.038906,-0.017344 -0.016414,0.010255 -0.07972,0.00515 -0.1075,-0.00859 -0.012099,-0.00599 -0.021182,-0.00603 -0.033281,-1.563e-4 -0.00917,0.00445 -0.036301,0.00993 -0.060156,0.012031 -0.023988,0.00211 -0.049024,0.00891 -0.056094,0.015312 -0.00703,0.00636 -0.016173,0.011563 -0.020313,0.011563 -0.00414,0 -0.01312,0.00631 -0.02,0.013906 -0.00751,0.0083 -0.027323,0.015495 -0.049531,0.018125 -0.020343,0.0024 -0.040825,0.00687 -0.045625,0.00984 -0.0048,0.00296 -0.02446,0.0055 -0.043594,0.00578 -0.023014,3.34e-4 -0.040044,0.00522 -0.050156,0.014375 -0.011627,0.01052 -0.021402,0.012752 -0.041094,0.00906 -0.014242,-0.00268 -0.031899,-0.00162 -0.039219,0.00234 -0.032732,0.017729 -0.064846,0.030312 -0.077031,0.030312 -0.00728,0 -0.015293,0.00342 -0.017813,0.0075 -0.00252,0.00407 -0.010264,0.00734 -0.017344,0.00734 -0.00708,0 -0.025957,0.013386 -0.041875,0.029688 -0.015918,0.016301 -0.03334,0.029531 -0.03875,0.029531 -0.00542,0 -0.011819,0.00584 -0.014219,0.012969 -0.00419,0.012466 -0.017482,0.027433 -0.097344,0.1098438 -0.020053,0.020693 -0.039475,0.042481 -0.043125,0.048281 -0.00826,0.013114 -0.036132,0.029063 -0.050781,0.029063 -0.00605,0 -0.030139,0.0088 -0.053594,0.019531 -0.023455,0.010728 -0.057395,0.020621 -0.075313,0.022031 -0.017918,0.00141 -0.036337,0.00546 -0.040937,0.00906 -0.0046,0.0036 -0.017335,0.00864 -0.028281,0.01125 -0.016146,0.00385 -0.026042,-6.013e-4 -0.052969,-0.023906 -0.035473,-0.030702 -0.094758,-0.04743 -0.1109375,-0.03125 -0.013044,0.013044 -0.032139,0.0093 -0.056563,-0.01125 -0.019084,-0.016057 -0.027659,-0.018598 -0.050625,-0.014687 -0.015196,0.00259 -0.055153,0.00619 -0.088906,0.00797 -0.057307,0.00302 -0.077672,-5.29e-4 -0.1053125,-0.018125 -0.00611,-0.00389 -0.023858,-0.012651 -0.039375,-0.019531 -0.024402,-0.01082 -0.032166,-0.011279 -0.057344,-0.00297 -0.016009,0.00528 -0.034606,0.015761 -0.041406,0.023281 -0.0068,0.00752 -0.018004,0.01375 -0.024844,0.01375 -0.00684,0 -0.014929,0.00241 -0.017969,0.00547 -0.00303,0.00306 -0.029266,0.00932 -0.058281,0.01375 -0.041906,0.0064 -0.056697,0.00597 -0.071719,-0.00188 -0.010402,-0.00543 -0.03058,-0.011951 -0.044844,-0.014531 -0.014264,-0.00258 -0.030921,-0.00885 -0.037031,-0.013906 -0.00611,-0.00505 -0.025419,-0.011402 -0.042969,-0.014063 -0.03778,-0.00574 -0.11568427,-0.03146 -0.14328127,-0.047344 -0.01942,-0.011175 -0.0282425,-0.010012 -0.0521875,0.00719 -0.013403,0.00963 -0.035271,0.00195 -0.071875,-0.025313 -0.009719,-0.00724 -0.0254437,-0.013125 -0.0348437,-0.013125 -0.009399,0 -0.0187612,-0.00267 -0.0207812,-0.00594 -0.004557,-0.00737 -0.11272625,-0.00696 -0.12015625,4.687e-4 -0.002974,0.00298 -0.0115325,0.00547 -0.0190625,0.00547 -0.007526,0 -0.0194825,0.00296 -0.0265625,0.00656 -0.0558685,0.02842 -0.0936025,0.032849 -0.1259375,0.014687 -0.01349,-0.00758 -0.0304062,-0.013906 -0.0376563,-0.013906 -0.030126,0 -0.0391465,-0.016072 -0.0339062,-0.060625 0.003865,-0.032882 0.008055,-0.042665 0.019375,-0.045625 0.007933,-0.00207 0.0162275,-0.010613 0.0184375,-0.019062 0.002564,-0.00981 0.009996,-0.015469 0.020625,-0.015469 0.025093,0 0.0557813,-0.027335 0.0557813,-0.049844 0,-0.028515 -0.01997,-0.046406 -0.051875,-0.046406 -0.017933,0 -0.0319813,-0.00512 -0.0407812,-0.014844 -0.007377,-0.00815 -0.016655,-0.014844 -0.020625,-0.014844 -0.003969,0 -0.0201487,-0.011674 -0.0359377,-0.025937 -0.0157885,-0.014264 -0.0342935,-0.025937 -0.0410935,-0.025937 -0.006799,0 -0.0184575,-0.00557 -0.0259375,-0.012344 -0.00654,-0.00592 -0.01277,-0.00976 -0.015,-0.00953 z"
     id="rect4" />
  <path
     style="fill:#00966e;fill-opacity:1;stroke:#00966e;stroke-width:0.02;stroke-linejoin:round;stroke-miterlimit:4;stroke-opacity:1;stroke-dasharray:none"
     d="m 0.36634927,0.87659108 c 0.00841,0.00423 0.021513,0.012495 0.0325,0.020625 0.022274,0.016483 0.024234,0.020843 0.019844,0.044219 -0.00595,0.031717 -0.018911,0.05375 -0.031719,0.05375 -0.00526,0 -0.011795,0.00561 -0.014375,0.012344 -0.00258,0.00673 -0.017496,0.023694 -0.033125,0.037813 -0.022331,0.020178 -0.028281,0.031149 -0.028281,0.050938 0,0.018971 -0.00592,0.030522 -0.024062,0.047031 -0.027468,0.024996 -0.067151,0.035784 -0.082969,0.022656 -0.025799,-0.021411 -0.130156,0.039225 -0.130156,0.075625 0,0.00754 0.00748,0.026577 0.016562,0.042344 0.016074,0.027932 0.016134,0.029186 0.00281,0.043906 -0.00931,0.010294 -0.012223,0.020992 -0.00906,0.033594 0.00255,0.010173 6.715e-4,0.033439 -0.00422,0.051719 l -0.00891,0.033125 0.035313,0.037969 c 0.024851,0.026574 0.033321,0.040459 0.028281,0.046719 -0.00394,0.0049 -0.00948,0.019898 -0.012344,0.033281 -0.00287,0.013444 -0.013245,0.029467 -0.023125,0.035937 -0.00983,0.00644 -0.017812,0.015974 -0.017812,0.021094 0,0.00513 -0.012977,0.011386 -0.02875,0.013906 -0.015772,0.00252 -0.032895,0.00964 -0.038125,0.015937 -0.00796,0.00959 -0.00631,0.014841 0.010156,0.032031 0.010811,0.011283 0.019531,0.023319 0.019531,0.026719 0,0.00314 0.011628,0.01815 0.02625,0.034375 l 3.49796913,0 C 3.4951814,1.6669841 3.4942834,1.6588751 3.5080634,1.637842 3.5188174,1.621424 3.5186494,1.619238 3.5066534,1.608936 3.4994834,1.602786 3.4880544,1.595741 3.4811844,1.593311 3.4732044,1.590491 3.4689244,1.581177 3.4693094,1.567686 3.4701344,1.538658 3.4542044,1.509665 3.4433724,1.520499 c -0.00977,0.00977 -0.022675,0.011109 -0.016875,0.00172 0.013854,-0.022411 -0.072646,-0.03764 -0.089688,-0.015781 -0.013126,0.01683 -0.021176,0.00262 -0.010156,-0.017969 0.00542,-0.010147 0.00791,-0.027633 0.00547,-0.039844 -0.00414,-0.020711 -0.00299,-0.022001 0.025156,-0.025781 0.038841,-0.00521 0.05125,-0.016466 0.05125,-0.046875 0,-0.0158 0.00351,-0.025 0.00969,-0.025 0.00539,0 0.022492,-0.00622 0.037969,-0.01375 0.022095,-0.010748 0.025475,-0.014658 0.015625,-0.018438 -0.0069,-0.00265 -0.01138,-0.010673 -0.01,-0.017813 0.00211,-0.010905 0.010785,-0.013125 0.054219,-0.013125 l 0.051719,0 7.813e-4,-0.033281 c 4.199e-4,-0.018339 -0.0024,-0.044243 -0.00625,-0.057656 -0.00385,-0.013414 -0.00469,-0.030228 -0.00187,-0.037187 0.00679,-0.016767 0.007,-0.071585 3.125e-4,-0.1110937 -0.00363,-0.021426 -0.00241,-0.035236 0.00375,-0.042656 0.011563,-0.013938 0.023276,-0.064419 0.024526,-0.10515602 2.879e-4,-0.00939 0.00122,-0.017143 0.00344,-0.024219 l -3.22609383,0 z"
     id="rect6" />
  <path
     style="fill:#d62612;stroke:#d62612;stroke-width:0.02;stroke-linejoin:miter;stroke-miterlimit:4;stroke-opacity:1;stroke-dasharray:none"
     d="m 0.06997127,1.7437616 c 0.00152,0.0017 0.00245,0.00267 0.00403,0.00439 0.016302,0.017685 0.029687,0.038301 0.029687,0.045781 0,0.023298 0.041006,0.057381 0.1089065,0.090469 0.017152,0.00836 0.033175,0.01854 0.035625,0.0225 0.00245,0.00396 0.01367,0.00719 0.024844,0.00719 0.011173,0 0.029344,0.00413 0.040313,0.00922 0.018219,0.00846 0.019945,0.012885 0.02,0.051406 5e-5,0.023194 0.00326,0.044199 0.00734,0.046719 0.00408,0.00252 0.0075,0.012054 0.0075,0.021094 0,0.00904 0.00669,0.022083 0.014844,0.029063 0.00815,0.00698 0.014687,0.020424 0.014687,0.029844 0,0.024861 0.016866,0.056964 0.029844,0.057031 0.00615,3e-5 0.015431,0.00706 0.020781,0.015625 0.00875,0.014003 0.00683,0.019223 -0.020312,0.051406 -0.032294,0.038301 -0.039545,0.071749 -0.019063,0.08875 0.0069,0.00573 0.0087,0.012556 0.00469,0.017656 -0.00887,0.011271 -0.00885,0.080268 0,0.090937 0.00462,0.00557 0.00441,0.010328 -6.25e-4,0.013438 -0.00427,0.00264 -0.00781,0.014138 -0.00781,0.025625 0,0.011487 -0.00498,0.025086 -0.011094,0.030156 -0.013472,0.011177 -0.014743,0.043599 -0.00188,0.047969 0.00509,0.00173 0.046334,0.00475 0.091719,0.00656 0.090184,0.00359 0.11604,-0.00306 0.12,-0.030625 0.0013,-0.00903 0.00948,-0.021496 0.018281,-0.027656 0.014692,-0.010291 0.016462,-0.00988 0.021562,0.00391 0.00917,0.024802 0.027632,0.026189 0.048437,0.00375 0.015907,-0.017154 0.023035,-0.019684 0.045156,-0.016094 0.014452,0.00235 0.030415,7.262e-4 0.035625,-0.00359 0.00691,-0.00573 0.015513,-0.00366 0.031406,0.00766 0.028771,0.020486 0.064334,0.020514 0.075312,0 0.00722,-0.013491 0.012727,-0.014991 0.040781,-0.010781 0.02766,0.00415 0.033745,0.0027 0.041875,-0.010312 0.00523,-0.00837 0.015722,-0.015311 0.023282,-0.015311 0.00756,0 0.023121,-0.00657 0.034531,-0.014687 0.0176,-0.01253 0.0214,-0.01314 0.025,-0.00375 0.00624,0.016262 0.039733,0.013677 0.049063,-0.00375 0.00648,-0.01212 0.010373,-0.01324 0.021562,-0.00625 0.00749,0.00467 0.019392,0.00634 0.026563,0.00359 0.01061,-0.00408 0.012425,-0.011246 0.00937,-0.038281 l -0.00375,-0.033125 0.035156,0 c 0.022278,0 0.038701,-0.00406 0.044531,-0.011094 0.00507,-0.00612 0.017886,-0.011061 0.028594,-0.010937 0.016799,1.9e-4 0.017753,0.00129 0.00656,0.00781 -0.016307,0.0095 -0.016511,0.027603 -6.25e-4,0.045156 0.017375,0.0192 0.032096,0.016865 0.064688,-0.01 0.025258,-0.020824 0.029173,-0.022057 0.035313,-0.011094 0.00883,0.015773 0.034571,0.015815 0.051875,1.56e-4 0.010934,-0.00989 0.015518,-0.010423 0.024687,-0.00281 0.00619,0.00514 0.01125,0.013457 0.01125,0.018438 0,0.00498 0.00701,0.015365 0.015625,0.023125 0.00862,0.00776 0.018588,0.02184 0.022188,0.03125 0.0037,0.00967 0.010098,0.015027 0.014688,0.012188 0.011438,-0.00707 0.041415,0.00964 0.083437,0.046562 0.0198,0.017394 0.039026,0.031563 0.042656,0.031563 0.00363,0 0.00656,-0.011253 0.00656,-0.025 0,-0.024643 5.126e-4,-0.02487 0.031563,-0.02375 0.017321,6.3e-4 0.038176,0.00492 0.046406,0.00953 0.00823,0.00461 0.027281,0.010608 0.042344,0.013438 0.015062,0.00283 0.031217,0.00978 0.035937,0.015469 0.00472,0.00568 0.014463,0.010312 0.021563,0.010312 0.0071,0 0.034128,0.019846 0.060156,0.044062 l 0.047344,0.044062 0.040781,-0.00422 c 0.022415,-0.00232 0.043942,-0.00707 0.047812,-0.010625 0.00387,-0.00355 0.012535,-0.00656 0.019375,-0.00656 0.00684,0 0.016649,-0.00498 0.021719,-0.011094 0.00507,-0.00611 0.018396,-0.011094 0.029688,-0.011094 0.011291,0 0.022315,-0.00433 0.024375,-0.00969 0.0041,-0.01068 0.072646,-0.011937 0.09625,-0.00172 0.00853,0.00369 0.018012,0.00149 0.026562,-0.00625 0.0073,-0.00661 0.016041,-0.012031 0.019531,-0.012031 0.00349,0 0.014134,-0.0072 0.023594,-0.016094 l 0.017187,-0.01625 0.022031,0.021094 c 0.021418,0.02052 0.022817,0.02094 0.053594,0.01125 0.017406,-0.00548 0.037359,-0.014699 0.044219,-0.020469 0.00814,-0.00686 0.020155,-0.00879 0.034531,-0.00563 0.012796,0.00282 0.024055,0.00144 0.026875,-0.00312 0.00267,-0.00431 0.01102,-0.00781 0.01875,-0.00781 0.01048,0 0.01534,-0.00708 0.01875,-0.027813 0.00251,-0.015283 0.00821,-0.035245 0.012656,-0.044375 0.00646,-0.013242 0.00538,-0.019489 -0.00484,-0.030781 -0.00919,-0.010155 -0.010233,-0.015565 -0.00406,-0.019375 0.00823,-0.00509 0.00745,-0.017378 -0.00437,-0.075 -0.00264,-0.012838 -0.017808,-0.035996 -0.03375,-0.051563 -0.030056,-0.029349 -0.03902,-0.062344 -0.017031,-0.062344 0.00649,0 0.020165,-0.00658 0.030469,-0.014687 0.020166,-0.01586 0.04783,-0.013949 0.069375,0.00469 0.00643,0.00557 0.022388,0.01 0.035312,0.01 0.023367,0 0.023437,-2.225e-4 0.023437,-0.038438 0,-0.055789 0.01791,-0.072656 0.076719,-0.072656 0.056947,0 0.071406,-0.01182 0.071406,-0.058125 0,-0.02594 0.00438,-0.038119 0.018906,-0.053281 0.016654,-0.01738 0.023029,-0.01937 0.055469,-0.01625 0.023943,0.0023 0.040857,1.96e-4 0.048437,-0.00609 0.00639,-0.0053 0.028416,-0.010522 0.048906,-0.011562 0.058691,-0.00297 0.11161,-0.035595 0.11875,-0.073281 0.00257,-0.013578 0.00759,-0.014538 0.060469,-0.012188 0.046237,0.00205 0.060341,1.5e-5 0.071406,-0.01 0.0094,-0.00851 0.019387,-0.010827 0.031094,-0.00719 0.025446,0.00791 0.057969,0.032638 0.057969,0.044063 0,0.01144 0.064529,0.070469 0.077031,0.070469 0.00456,0 0.01241,0.00669 0.0175,0.014844 0.010368,0.016606 0.042571,0.020043 0.048281,0.00516 0.00204,-0.00532 0.017426,-0.014147 0.034219,-0.019687 0.016794,-0.00554 0.03423,-0.01456 0.03875,-0.02 0.010913,-0.013148 0.032161,-0.012527 0.043594,0.00125 0.013776,0.016594 0.029021,0.013401 0.037031,-0.00766 0.00925,-0.024329 0.026794,-0.030531 0.043438,-0.015469 0.018417,0.016664 0.062194,0.015417 0.078125,-0.00219 0.012005,-0.013264 0.012046,-0.015583 4.686e-4,-0.037969 -0.00679,-0.013132 -0.027899,-0.039906 -0.046876,-0.059531 -0.023199,-0.023991 -0.041149,-0.04264 -0.056875,-0.059219 l -3.49812494,0 5.038e-4,5.957e-4 z"
     id="rect8"
     sodipodi:nodetypes="csssssscsssssssssssssscsssssssssssssssscccsssssssssssssssssssscccsssssssscccssssssssscssssssssssssscssssssssssssssccc" />
</svg>
